<svg width="13" height="12" viewBox="0 0 13 12" fill="none" xmlns="http://www.w3.org/2000/svg">
<path d="M12.032 5.21332H2.81562L6.84213 1.3542C7.16392 1.04579 7.16392 0.539678 6.84213 0.231265C6.7658 0.157955 6.67513 0.0997934 6.57531 0.0601098C6.4755 0.0204262 6.3685 0 6.26043 0C6.15237 0 6.04537 0.0204262 5.94555 0.0601098C5.84574 0.0997934 5.75507 0.157955 5.67873 0.231265L0.241297 5.44265C0.164807 5.51581 0.104122 5.60271 0.0627175 5.69838C0.0213126 5.79404 0 5.8966 0 6.00017C0 6.10374 0.0213126 6.20629 0.0627175 6.30196C0.104122 6.39762 0.164807 6.48452 0.241297 6.55768L5.67873 11.7691C5.75512 11.8423 5.84581 11.9004 5.94562 11.94C6.04543 11.9796 6.1524 12 6.26043 12C6.36846 12 6.47544 11.9796 6.57525 11.94C6.67505 11.9004 6.76574 11.8423 6.84213 11.7691C6.91852 11.6959 6.97912 11.6089 7.02046 11.5133C7.0618 11.4176 7.08308 11.3151 7.08308 11.2116C7.08308 11.108 7.0618 11.0055 7.02046 10.9098C6.97912 10.8142 6.91852 10.7273 6.84213 10.654L2.81562 6.79492H12.032C12.4858 6.79492 12.8571 6.43906 12.8571 6.00412C12.8571 5.56918 12.4858 5.21332 12.032 5.21332Z" fill="black" fill-opacity="0.7"/>
</svg>
