<svg width="20" height="20" viewBox="0 0 20 20" fill="none" xmlns="http://www.w3.org/2000/svg">
<path d="M1 1H1.268C1.742 1 1.979 1 2.173 1.085C2.343 1.161 2.489 1.282 2.593 1.436C2.713 1.61 2.756 1.843 2.841 2.307L5 14H15.422C15.875 14 16.102 14 16.29 13.92C16.4557 13.8492 16.5991 13.7348 16.705 13.589C16.825 13.424 16.876 13.204 16.978 12.763V12.76L18.548 5.96C18.702 5.291 18.78 4.955 18.695 4.692C18.6198 4.46142 18.4635 4.26598 18.255 4.142C18.019 4 17.676 4 16.99 4H3.5M16 19C15.7348 19 15.4804 18.8946 15.2929 18.7071C15.1054 18.5196 15 18.2652 15 18C15 17.7348 15.1054 17.4804 15.2929 17.2929C15.4804 17.1054 15.7348 17 16 17C16.2652 17 16.5196 17.1054 16.7071 17.2929C16.8946 17.4804 17 17.7348 17 18C17 18.2652 16.8946 18.5196 16.7071 18.7071C16.5196 18.8946 16.2652 19 16 19ZM6 19C5.73478 19 5.48043 18.8946 5.29289 18.7071C5.10536 18.5196 5 18.2652 5 18C5 17.7348 5.10536 17.4804 5.29289 17.2929C5.48043 17.1054 5.73478 17 6 17C6.26522 17 6.51957 17.1054 6.70711 17.2929C6.89464 17.4804 7 17.7348 7 18C7 18.2652 6.89464 18.5196 6.70711 18.7071C6.51957 18.8946 6.26522 19 6 19Z" stroke="black" stroke-opacity="0.7" stroke-width="2" stroke-linecap="round" stroke-linejoin="round"/>
</svg>
