<svg width="20" height="14" viewBox="0 0 20 14" fill="none" xmlns="http://www.w3.org/2000/svg">
<path d="M6.59409 14C6.42705 14 6.27045 13.9737 6.12429 13.9211C5.97813 13.8684 5.84241 13.7799 5.71713 13.6555L0.330114 8.26844C0.100435 8.03876 -0.00939378 7.74102 0.00062858 7.3752C0.0106509 7.00939 0.130919 6.71206 0.361433 6.48321C0.591112 6.25353 0.883431 6.13869 1.23839 6.13869C1.59335 6.13869 1.88567 6.25353 2.11535 6.48321L6.59409 10.962L17.2115 0.344519C17.4412 0.11484 17.7389 0 18.1048 0C18.4706 0 18.7679 0.11484 18.9968 0.344519C19.2264 0.574198 19.3413 0.871945 19.3413 1.23776C19.3413 1.60358 19.2264 1.90091 18.9968 2.12975L7.47104 13.6555C7.34576 13.7807 7.21004 13.8697 7.06388 13.9223C6.91773 13.9749 6.76113 14.0008 6.59409 14Z" fill="black" fill-opacity="0.7"/>
</svg>
