<svg width="25" height="26" viewBox="0 0 25 26" fill="none" xmlns="http://www.w3.org/2000/svg">
<path fill-rule="evenodd" clip-rule="evenodd" d="M12.3088 8.46509C11.1061 8.46509 9.95262 8.94287 9.10216 9.79332C8.25171 10.6438 7.77393 11.7972 7.77393 13C7.77393 14.2027 8.25171 15.3562 9.10216 16.2066C9.95262 17.0571 11.1061 17.5349 12.3088 17.5349C13.5115 17.5349 14.665 17.0571 15.5155 16.2066C16.3659 15.3562 16.8437 14.2027 16.8437 13C16.8437 11.7972 16.3659 10.6438 15.5155 9.79332C14.665 8.94287 13.5115 8.46509 12.3088 8.46509ZM9.58788 13C9.58788 12.2783 9.87455 11.5863 10.3848 11.076C10.8951 10.5657 11.5872 10.279 12.3088 10.279C13.0304 10.279 13.7225 10.5657 14.2328 11.076C14.7431 11.5863 15.0297 12.2783 15.0297 13C15.0297 13.7216 14.7431 14.4137 14.2328 14.924C13.7225 15.4342 13.0304 15.7209 12.3088 15.7209C11.5872 15.7209 10.8951 15.4342 10.3848 14.924C9.87455 14.4137 9.58788 13.7216 9.58788 13Z" fill="black" fill-opacity="0.7"/>
<path fill-rule="evenodd" clip-rule="evenodd" d="M12.2786 0C11.7405 0 11.2918 -2.2525e-08 10.9242 0.024186C10.5484 0.0398341 10.1778 0.117469 9.82738 0.253954C9.42377 0.420946 9.05702 0.66581 8.74806 0.974561C8.4391 1.28331 8.19399 1.6499 8.02673 2.0534C7.85138 2.47665 7.80422 2.92409 7.78487 3.41023C7.78293 3.58803 7.73587 3.76241 7.64808 3.91704C7.5603 4.07166 7.43468 4.20145 7.28301 4.29423C7.12686 4.37949 6.95161 4.42367 6.77371 4.42261C6.59581 4.42155 6.4211 4.3753 6.26598 4.28819C5.83547 4.06084 5.42431 3.87823 4.96961 3.81777C4.53661 3.76081 4.09664 3.7897 3.67481 3.90279C3.25297 4.01587 2.85755 4.21093 2.5111 4.47684C2.21818 4.71251 1.96609 4.99483 1.76496 5.31247C1.55938 5.61963 1.33445 6.00781 1.06598 6.4734L1.03575 6.5266C0.766076 6.99219 0.542355 7.38037 0.380308 7.71172C0.211006 8.05758 0.0779827 8.3986 0.0296107 8.77591C-0.0857565 9.65022 0.150879 10.5346 0.687471 11.2344C0.96682 11.5984 1.33082 11.8633 1.74198 12.122C1.89527 12.2127 2.02299 12.3408 2.11311 12.4944C2.20323 12.648 2.2528 12.822 2.25715 13C2.2528 13.178 2.20323 13.352 2.11311 13.5056C2.02299 13.6592 1.89527 13.7873 1.74198 13.878C1.33082 14.1367 0.968029 14.4016 0.687471 14.7656C0.421566 15.112 0.226502 15.5075 0.113419 15.9293C0.000335506 16.3511 -0.0285535 16.7911 0.0284014 17.2241C0.0779828 17.6014 0.209797 17.9424 0.379099 18.2883C0.542355 18.6196 0.766076 19.0078 1.03575 19.4734L1.06598 19.5266C1.33445 19.9922 1.55938 20.3804 1.76496 20.6875C1.97901 21.0056 2.20877 21.2922 2.5111 21.522C2.85746 21.7881 3.25284 21.9834 3.67468 22.0966C4.09651 22.2099 4.53653 22.239 4.96961 22.1822C5.42431 22.1218 5.83547 21.9404 6.26598 21.7118C6.42092 21.6248 6.59542 21.5786 6.77311 21.5776C6.9508 21.5765 7.12584 21.6206 7.2818 21.7058C7.43431 21.7978 7.56072 21.9274 7.649 22.0821C7.73727 22.2369 7.78446 22.4116 7.78608 22.5898C7.80422 23.0759 7.85138 23.5233 8.02794 23.9466C8.19493 24.3502 8.43979 24.717 8.74854 25.0259C9.0573 25.3349 9.42389 25.58 9.82738 25.7473C10.1781 25.8924 10.5409 25.9492 10.9242 25.9746C11.2918 26 11.7405 26 12.2786 26H12.3391C12.8772 26 13.3259 26 13.6935 25.9758C14.0781 25.9492 14.4397 25.8924 14.7904 25.746C15.194 25.5791 15.5607 25.3342 15.8697 25.0254C16.1786 24.7167 16.4237 24.3501 16.591 23.9466C16.7664 23.5233 16.8135 23.0759 16.8329 22.5898C16.8346 22.4118 16.8816 22.2371 16.9694 22.0823C17.0572 21.9274 17.1829 21.7974 17.3347 21.7046C17.491 21.6195 17.6663 21.5755 17.8442 21.5768C18.0221 21.5781 18.1967 21.6245 18.3518 21.7118C18.7823 21.9392 19.1934 22.1218 19.6481 22.181C20.5224 22.2964 21.4068 22.0598 22.1066 21.5232C22.409 21.291 22.6387 21.0056 22.8528 20.6875C23.0584 20.3804 23.2833 19.9922 23.5518 19.5266L23.582 19.4734C23.8517 19.0078 24.0754 18.6196 24.2374 18.2883C24.4067 17.9424 24.5398 17.6002 24.5881 17.2241C24.7035 16.3498 24.4669 15.4654 23.9303 14.7656C23.6509 14.4016 23.2869 14.1367 22.8758 13.878C22.7225 13.7873 22.5947 13.6592 22.5046 13.5056C22.4145 13.352 22.3649 13.178 22.3606 13C22.3606 12.6638 22.5444 12.33 22.8758 12.122C23.2869 11.8633 23.6497 11.5984 23.9303 11.2344C24.1962 10.888 24.3912 10.4925 24.5043 10.0707C24.6174 9.64888 24.6463 9.2089 24.5893 8.77591C24.5318 8.4043 24.4133 8.04474 24.2386 7.71172C24.0322 7.30993 23.8132 6.91469 23.582 6.5266L23.5518 6.4734C23.3308 6.07927 23.0977 5.69211 22.8528 5.31247C22.6517 4.99517 22.3996 4.71324 22.1066 4.47805C21.7603 4.21193 21.3649 4.01665 20.9431 3.90336C20.5212 3.79007 20.0812 3.76098 19.6481 3.81777C19.1934 3.87823 18.7823 4.05963 18.3518 4.28819C18.1968 4.37508 18.0223 4.42122 17.8446 4.42228C17.667 4.42333 17.4919 4.37928 17.3359 4.29423C17.1838 4.20174 17.0577 4.07208 16.9695 3.91744C16.8813 3.76279 16.8338 3.58825 16.8317 3.41023C16.8135 2.92409 16.7664 2.47665 16.5898 2.0534C16.4228 1.64979 16.1779 1.28304 15.8692 0.974077C15.5604 0.665118 15.1938 0.420007 14.7904 0.252744C14.4397 0.107628 14.0769 0.0507907 13.6935 0.0253954C13.3259 3.37875e-08 12.8772 0 12.3391 0H12.2786ZM10.5215 1.92884C10.6146 1.89014 10.7561 1.85507 11.0476 1.83451C11.3463 1.81395 11.7332 1.81395 12.3089 1.81395C12.8845 1.81395 13.2715 1.81395 13.5702 1.83451C13.8616 1.85507 14.0031 1.89014 14.0962 1.92884C14.4675 2.08242 14.7613 2.37628 14.9149 2.74753C14.9633 2.86363 15.0032 3.04623 15.0189 3.47795C15.0552 4.43572 15.5498 5.35842 16.4278 5.86512C17.3057 6.37302 18.3518 6.33916 19.1995 5.89172C19.5816 5.68977 19.7594 5.63293 19.8851 5.61721C20.2825 5.56471 20.6844 5.67215 21.0025 5.91591C21.0824 5.97758 21.1839 6.08279 21.3472 6.32465C21.5153 6.57377 21.7088 6.90874 21.9966 7.40698C22.2844 7.90521 22.4767 8.24139 22.6085 8.50986C22.7379 8.77228 22.7778 8.91256 22.7899 9.01293C22.8424 9.41026 22.735 9.81219 22.4912 10.1303C22.4138 10.2307 22.2759 10.3565 21.9107 10.5862C21.0981 11.0966 20.5466 11.9866 20.5466 13C20.5466 14.0134 21.0981 14.9034 21.9107 15.4138C22.2759 15.6435 22.4138 15.7693 22.4912 15.8697C22.7355 16.1877 22.8419 16.5892 22.7899 16.9871C22.7778 17.0874 22.7367 17.2289 22.6085 17.4901C22.4767 17.7598 22.2844 18.0948 21.9966 18.593C21.7088 19.0913 21.5141 19.4262 21.3472 19.6753C21.1839 19.9172 21.0824 20.0224 21.0025 20.0841C20.6844 20.3279 20.2825 20.4353 19.8851 20.3828C19.7594 20.3671 19.5828 20.3102 19.1995 20.1083C18.353 19.6608 17.3057 19.627 16.4278 20.1337C15.5498 20.6416 15.0552 21.5643 15.0189 22.522C15.0032 22.9538 14.9633 23.1364 14.9149 23.2525C14.8389 23.436 14.7275 23.6028 14.5871 23.7433C14.4466 23.8838 14.2798 23.9952 14.0962 24.0712C14.0031 24.1099 13.8616 24.1449 13.5702 24.1655C13.2715 24.186 12.8845 24.186 12.3089 24.186C11.7332 24.186 11.3463 24.186 11.0476 24.1655C10.7561 24.1449 10.6146 24.1099 10.5215 24.0712C10.338 23.9952 10.1712 23.8838 10.0307 23.7433C9.8902 23.6028 9.77879 23.436 9.70282 23.2525C9.65445 23.1364 9.61454 22.9538 9.59882 22.522C9.56254 21.5643 9.06794 20.6416 8.18998 20.1349C7.31203 19.627 6.26598 19.6608 5.41826 20.1083C5.03612 20.3102 4.85836 20.3671 4.73259 20.3828C4.33525 20.4353 3.93333 20.3279 3.61519 20.0841C3.53538 20.0224 3.4338 19.9172 3.27054 19.6753C3.04308 19.3213 2.82652 18.9603 2.62115 18.593C2.33333 18.0948 2.14105 17.7586 2.00924 17.4901C1.87984 17.2277 1.83994 17.0874 1.82784 16.9871C1.77534 16.5897 1.88278 16.1878 2.12654 15.8697C2.20394 15.7693 2.3418 15.6435 2.70701 15.4138C3.51966 14.9034 4.0711 14.0134 4.0711 13C4.0711 11.9866 3.51966 11.0966 2.70701 10.5862C2.3418 10.3565 2.20394 10.2307 2.12654 10.1303C1.88278 9.81219 1.77534 9.41026 1.82784 9.01293C1.83994 8.91256 1.88105 8.77107 2.00924 8.50986C2.14105 8.24019 2.33333 7.90521 2.62115 7.40698C2.90896 6.90874 3.10366 6.57377 3.27054 6.32465C3.4338 6.08279 3.53538 5.97758 3.61519 5.91591C3.93333 5.67215 4.33525 5.56471 4.73259 5.61721C4.85836 5.63293 5.03491 5.68977 5.41826 5.89172C6.26477 6.33916 7.31203 6.37302 8.18998 5.86512C9.06794 5.35842 9.56254 4.43572 9.59882 3.47795C9.61454 3.04623 9.65445 2.86363 9.70282 2.74753C9.8564 2.37628 10.1503 2.08242 10.5215 1.92884Z" fill="black" fill-opacity="0.7"/>
</svg>
