<svg width="16" height="14" viewBox="0 0 16 14" fill="none" xmlns="http://www.w3.org/2000/svg">
<path d="M12.84 13.722C12.7684 13.8091 12.6783 13.8793 12.5763 13.9273C12.4742 13.9754 12.3628 14.0002 12.25 14C12.1519 14.0006 12.0547 13.9814 11.9641 13.9436C11.8736 13.9058 11.7916 13.8502 11.723 13.78L8.71901 10.772C8.57856 10.6314 8.49967 10.4408 8.49967 10.242C8.49967 10.0433 8.57856 9.85264 8.71901 9.71201C8.78851 9.64223 8.8711 9.58686 8.96206 9.54907C9.05301 9.51129 9.15052 9.49184 9.24901 9.49184C9.3475 9.49184 9.44502 9.51129 9.53597 9.54907C9.62692 9.58686 9.70951 9.64223 9.77901 9.71201L11.5 11.444V0.750012C11.5 0.5511 11.579 0.360335 11.7197 0.219682C11.8603 0.07903 12.0511 1.24386e-05 12.25 1.24386e-05C12.4489 1.24386e-05 12.6397 0.07903 12.7803 0.219682C12.921 0.360335 13 0.5511 13 0.750012V11.434L14.722 9.71601C14.7915 9.64638 14.874 9.59113 14.9649 9.55344C15.0557 9.51575 15.1531 9.49634 15.2515 9.49634C15.3499 9.49634 15.4473 9.51575 15.5381 9.55344C15.629 9.59113 15.7115 9.64638 15.781 9.71601C15.9215 9.85664 16.0004 10.0473 16.0004 10.246C16.0004 10.4448 15.9215 10.6354 15.781 10.776L12.839 13.722H12.84ZM4.34001 0.278013C4.26837 0.190898 4.17829 0.120773 4.07626 0.0726982C3.97423 0.0246233 3.8628 -0.000202406 3.75001 1.24386e-05C3.6519 -0.000559889 3.55468 0.0186239 3.46414 0.0564204C3.3736 0.0942169 3.29159 0.149853 3.22301 0.220012L0.220011 3.22801C0.079561 3.36864 0.000671387 3.55926 0.000671387 3.75801C0.000671387 3.95676 0.079561 4.14739 0.220011 4.28801C0.289509 4.3578 0.372104 4.41317 0.463055 4.45095C0.554007 4.48873 0.651524 4.50818 0.750011 4.50818C0.848498 4.50818 0.946016 4.48873 1.03697 4.45095C1.12792 4.41317 1.21051 4.3578 1.28001 4.28801L3.00001 2.55701V13.25C3.00001 13.4489 3.07903 13.6397 3.21968 13.7803C3.36033 13.921 3.5511 14 3.75001 14C3.94892 14 4.13969 13.921 4.28034 13.7803C4.42099 13.6397 4.50001 13.4489 4.50001 13.25V2.56601L6.22201 4.28401C6.29149 4.35365 6.37402 4.40889 6.46488 4.44658C6.55574 4.48428 6.65314 4.50368 6.75151 4.50368C6.84988 4.50368 6.94728 4.48428 7.03814 4.44658C7.129 4.40889 7.21153 4.35365 7.28101 4.28401C7.42146 4.14339 7.50035 3.95276 7.50035 3.75401C7.50035 3.55526 7.42146 3.36464 7.28101 3.22401L4.33901 0.277012L4.34001 0.278013Z" fill="black" fill-opacity="0.7"/>
</svg>
