<svg width="28" height="28" viewBox="0 0 28 28" fill="none" xmlns="http://www.w3.org/2000/svg">
<path d="M14 0C11.2311 0 8.52431 0.821086 6.22202 2.35943C3.91973 3.89776 2.12532 6.08427 1.06569 8.64243C0.00606598 11.2006 -0.271181 14.0155 0.269012 16.7313C0.809205 19.447 2.14258 21.9416 4.10051 23.8995C6.05845 25.8574 8.55301 27.1908 11.2687 27.731C13.9845 28.2712 16.7994 27.9939 19.3576 26.9343C21.9157 25.8747 24.1022 24.0803 25.6406 21.778C27.1789 19.4757 28 16.7689 28 14C27.9961 10.2882 26.5198 6.72949 23.8952 4.10483C21.2705 1.48017 17.7118 0.00391976 14 0ZM6.74154 23.3558C7.52061 22.1373 8.59386 21.1346 9.86236 20.4401C11.1309 19.7455 12.5538 19.3815 14 19.3815C15.4462 19.3815 16.8691 19.7455 18.1376 20.4401C19.4061 21.1346 20.4794 22.1373 21.2585 23.3558C19.1831 24.9698 16.6291 25.8461 14 25.8461C11.3709 25.8461 8.81686 24.9698 6.74154 23.3558ZM9.69231 12.9231C9.69231 12.0711 9.94495 11.2382 10.4183 10.5299C10.8916 9.82145 11.5644 9.26933 12.3515 8.94329C13.1386 8.61725 14.0048 8.53194 14.8404 8.69815C15.676 8.86437 16.4436 9.27464 17.046 9.87708C17.6484 10.4795 18.0587 11.2471 18.2249 12.0827C18.3911 12.9183 18.3058 13.7844 17.9798 14.5716C17.6538 15.3587 17.1016 16.0315 16.3932 16.5048C15.6848 16.9781 14.852 17.2308 14 17.2308C12.8575 17.2308 11.7619 16.7769 10.954 15.9691C10.1462 15.1612 9.69231 14.0655 9.69231 12.9231ZM22.8523 21.8629C21.6512 20.1224 19.9624 18.7759 17.9981 17.9927C19.0532 17.1616 19.8232 16.0224 20.2008 14.7335C20.5785 13.4446 20.5451 12.07 20.1054 10.8009C19.6656 9.53184 18.8413 8.43134 17.7471 7.65247C16.6529 6.87359 15.3431 6.45505 14 6.45505C12.6569 6.45505 11.3472 6.87359 10.2529 7.65247C9.15872 8.43134 8.33441 9.53184 7.89464 10.8009C7.45487 12.07 7.4215 13.4446 7.79918 14.7335C8.17685 16.0224 8.94679 17.1616 10.0019 17.9927C8.03764 18.7759 6.34878 20.1224 5.1477 21.8629C3.63 20.1562 2.63803 18.0471 2.29122 15.7897C1.94442 13.5323 2.25757 11.2227 3.19297 9.13917C4.12837 7.0556 5.64614 5.28685 7.56351 4.04591C9.48088 2.80497 11.7161 2.14475 14 2.14475C16.2839 2.14475 18.5191 2.80497 20.4365 4.04591C22.3539 5.28685 23.8716 7.0556 24.807 9.13917C25.7424 11.2227 26.0556 13.5323 25.7088 15.7897C25.362 18.0471 24.37 20.1562 22.8523 21.8629Z" fill="black" fill-opacity="0.7"/>
</svg>
