<svg width="43" height="34" viewBox="0 0 43 34" fill="none" xmlns="http://www.w3.org/2000/svg">
<path d="M3.15 8.658V15H1.19V5.2H3.024L7.252 11.542H7.28V5.2H9.24V15H7.406L3.178 8.658H3.15ZM17.7116 14.132L16.0876 15.07H13.1056L11.4816 14.132V8.868L13.1056 7.93H16.0876L17.7116 8.868V14.132ZM13.3996 9.568V13.432H15.7936V9.568H13.3996ZM19.2478 9.638V8H20.5358V6.824L22.4538 5.718V8H23.9938V9.638H22.4538V13.362H23.9938V15H22.1598L20.5358 14.062V9.638H19.2478ZM27.7278 8V15H25.8098V8H27.7278ZM25.7398 6.698V4.78H27.7978V6.698H25.7398ZM29.2693 9.638V8H30.5573V5.718L32.1813 4.78H34.0153V6.418H32.4753V8H34.0153V9.638H32.4753V15H30.5573V9.638H29.2693ZM36.1038 17.8L37.3918 14.51L34.7178 8H36.6358L38.3578 12.116H38.3858L40.0098 8H41.9278L37.9938 17.8H36.1038Z" fill="black" fill-opacity="0.7"/>
<path fill-rule="evenodd" clip-rule="evenodd" d="M13.1957 24.16C13.3493 24.32 13.5395 24.4 13.7661 24.4C13.9923 24.4005 14.1821 24.324 14.3357 24.1704C14.4893 24.0168 14.5795 23.8267 14.6061 23.6C14.6856 22.9205 14.8688 22.284 15.1557 21.6904C15.4427 21.0968 15.8195 20.5467 16.2861 20.04C16.4328 19.8667 16.5061 19.6733 16.5061 19.46C16.5061 19.2467 16.4328 19.0667 16.2861 18.92C16.1261 18.76 15.9328 18.68 15.7061 18.68C15.4795 18.68 15.2928 18.7533 15.1461 18.9C14.5467 19.5395 14.0635 20.2627 13.6965 21.0696C13.3296 21.8765 13.0995 22.72 13.0061 23.6C12.9789 23.8133 13.0421 24 13.1957 24.16ZM27.6061 24.1696C27.7661 24.3232 27.9528 24.4 28.1661 24.4C28.3933 24.4 28.5835 24.32 28.7365 24.16C28.8896 24 28.9528 23.8133 28.9261 23.6C28.8333 22.7195 28.6035 21.876 28.2365 21.0696C27.8696 20.2632 27.3861 19.54 26.7861 18.9C26.64 18.7533 26.4568 18.68 26.2365 18.68C26.0163 18.68 25.8261 18.76 25.6661 18.92C25.5061 19.0667 25.4261 19.2467 25.4261 19.46C25.4261 19.6733 25.4995 19.8667 25.6461 20.04C26.1133 20.5461 26.4901 21.096 26.7765 21.6896C27.0629 22.2832 27.2461 22.92 27.3261 23.6C27.3528 23.8261 27.4461 24.016 27.6061 24.1696ZM19.8357 33.5296C20.1493 33.8432 20.5261 34 20.9661 34C21.4056 34.0005 21.7821 33.844 22.0957 33.5304C22.4093 33.2168 22.5661 32.84 22.5661 32.4H19.3661C19.3656 32.8395 19.5221 33.216 19.8357 33.5296Z" fill="black" fill-opacity="0.7"/>
<path fill-rule="evenodd" clip-rule="evenodd" d="M15.3661 31.6C15.1395 31.6 14.9493 31.5232 14.7957 31.3696C14.6421 31.216 14.5656 31.0261 14.5661 30.8C14.5661 30.5733 14.6429 30.3832 14.7965 30.2296C14.9501 30.076 15.14 29.9995 15.3661 30H16.1661V24.4C16.1661 23.2933 16.4995 22.3099 17.1661 21.4496C17.8328 20.5893 18.6995 20.0261 19.7661 19.76V19.2C19.7661 18.8667 19.8829 18.5832 20.1165 18.3496C20.3501 18.116 20.6333 17.9995 20.9661 18C21.2995 18 21.5829 18.1168 21.8165 18.3504C22.0501 18.584 22.1667 18.8672 22.1661 19.2V19.76C23.2328 20.0267 24.0995 20.5901 24.7661 21.4504C25.4328 22.3107 25.7661 23.2939 25.7661 24.4V30H26.5661C26.7928 30 26.9829 30.0768 27.1365 30.2304C27.2901 30.384 27.3667 30.5739 27.3661 30.8C27.3661 31.0267 27.2893 31.2168 27.1357 31.3704C26.9821 31.524 26.7923 31.6005 26.5661 31.6H15.3661ZM24.1661 30H17.7661V24.4C17.7661 23.52 18.0795 22.7667 18.7061 22.14C19.3328 21.5133 20.0861 21.2 20.9661 21.2C21.8461 21.2 22.5995 21.5133 23.2261 22.14C23.8528 22.7667 24.1661 23.52 24.1661 24.4V30Z" fill="black" fill-opacity="0.7"/>
</svg>
